<svg width="191" height="45" viewBox="0 0 191 45" fill="none" xmlns="http://www.w3.org/2000/svg">
<path d="M34.4856 39.0924L34.4456 11.0924H30.1656L19.2456 29.6524L8.12557 11.0924H3.84557V39.0924H8.80557V20.7724L18.0056 35.8924H20.3256L29.5256 20.5324L29.5656 39.0924H34.4856ZM61.5687 39.0924H67.6487L55.1687 23.6124L66.9287 11.0924H61.0887L47.2487 25.4524V11.0924H42.0487V39.0924H47.2487V31.9324L51.6887 27.3724L61.5687 39.0924ZM79.2834 39.4924C86.9634 39.4924 90.6034 35.6524 90.6034 31.1724C90.6034 20.8924 74.0034 24.7724 74.0034 18.8124C74.0034 16.6924 75.7634 15.0124 80.0834 15.0124C82.5234 15.0124 85.2834 15.7324 87.8034 17.2124L89.4434 13.1724C87.0034 11.5724 83.4834 10.6924 80.1234 10.6924C72.4434 10.6924 68.8434 14.5324 68.8434 19.0524C68.8434 29.4524 85.4834 25.4924 85.4834 31.5324C85.4834 33.6124 83.6434 35.1724 79.2834 35.1724C75.8434 35.1724 72.2834 33.8924 70.0434 32.0924L68.2434 36.1324C70.5634 38.1324 74.9234 39.4924 79.2834 39.4924Z" fill="white"/>
<path d="M106.206 36.1924C105.166 36.1924 104.179 36.019 103.246 35.6724C102.326 35.3124 101.612 34.8524 101.106 34.2924L101.566 33.5324C102.046 34.0257 102.699 34.4457 103.526 34.7924C104.366 35.1257 105.252 35.2924 106.186 35.2924C107.119 35.2924 107.879 35.1724 108.466 34.9324C109.066 34.679 109.506 34.3457 109.786 33.9324C110.079 33.519 110.226 33.059 110.226 32.5524C110.226 31.9524 110.066 31.4724 109.746 31.1124C109.426 30.7524 109.006 30.4657 108.486 30.2524C107.966 30.039 107.399 29.859 106.786 29.7124C106.172 29.5657 105.552 29.4124 104.926 29.2524C104.299 29.079 103.726 28.859 103.206 28.5924C102.686 28.3257 102.266 27.9657 101.946 27.5124C101.639 27.0457 101.486 26.4457 101.486 25.7124C101.486 25.0457 101.659 24.4324 102.006 23.8724C102.352 23.3124 102.892 22.859 103.626 22.5124C104.359 22.1657 105.299 21.9924 106.446 21.9924C107.219 21.9924 107.979 22.1057 108.726 22.3324C109.486 22.559 110.132 22.8657 110.666 23.2524L110.286 24.0724C109.699 23.6724 109.066 23.379 108.386 23.1924C107.719 22.9924 107.072 22.8924 106.446 22.8924C105.552 22.8924 104.812 23.019 104.226 23.2724C103.639 23.5257 103.206 23.8657 102.926 24.2924C102.646 24.7057 102.506 25.1724 102.506 25.6924C102.506 26.2924 102.659 26.7724 102.966 27.1324C103.286 27.4924 103.706 27.779 104.226 27.9924C104.746 28.2057 105.319 28.3857 105.946 28.5324C106.572 28.679 107.192 28.839 107.806 29.0124C108.419 29.1724 108.986 29.3857 109.506 29.6524C110.026 29.919 110.446 30.279 110.766 30.7324C111.086 31.1857 111.246 31.7724 111.246 32.4924C111.246 33.1457 111.066 33.759 110.706 34.3324C110.346 34.8924 109.792 35.3457 109.046 35.6924C108.312 36.0257 107.366 36.1924 106.206 36.1924ZM114.393 36.0924V25.6524H115.393V36.0924H114.393ZM114.893 23.1124C114.666 23.1124 114.473 23.0324 114.313 22.8724C114.153 22.7124 114.073 22.5257 114.073 22.3124C114.073 22.0857 114.153 21.8924 114.313 21.7324C114.473 21.5724 114.666 21.4924 114.893 21.4924C115.133 21.4924 115.326 21.5724 115.473 21.7324C115.633 21.879 115.713 22.0657 115.713 22.2924C115.713 22.519 115.633 22.7124 115.473 22.8724C115.326 23.0324 115.133 23.1124 114.893 23.1124ZM122.248 36.1724C121.381 36.1724 120.568 36.0457 119.808 35.7924C119.061 35.539 118.481 35.219 118.068 34.8324L118.528 34.0324C118.928 34.379 119.461 34.679 120.128 34.9324C120.795 35.1724 121.515 35.2924 122.288 35.2924C123.381 35.2924 124.168 35.1124 124.648 34.7524C125.128 34.3924 125.368 33.919 125.368 33.3324C125.368 32.9057 125.241 32.5724 124.988 32.3324C124.748 32.079 124.421 31.8857 124.008 31.7524C123.595 31.619 123.141 31.5124 122.648 31.4324C122.155 31.339 121.661 31.239 121.168 31.1324C120.675 31.0257 120.221 30.8724 119.808 30.6724C119.395 30.4724 119.061 30.199 118.808 29.8524C118.568 29.4924 118.448 29.019 118.448 28.4324C118.448 27.899 118.595 27.419 118.888 26.9924C119.181 26.5657 119.621 26.2257 120.208 25.9724C120.795 25.7057 121.528 25.5724 122.408 25.5724C123.061 25.5724 123.715 25.6657 124.368 25.8524C125.035 26.039 125.575 26.2857 125.988 26.5924L125.528 27.3924C125.088 27.059 124.595 26.819 124.048 26.6724C123.501 26.5257 122.948 26.4524 122.388 26.4524C121.375 26.4524 120.628 26.639 120.148 27.0124C119.681 27.3857 119.448 27.8524 119.448 28.4124C119.448 28.8524 119.568 29.2057 119.808 29.4724C120.061 29.7257 120.395 29.9257 120.808 30.0724C121.221 30.2057 121.675 30.319 122.168 30.4124C122.661 30.4924 123.155 30.5857 123.648 30.6924C124.141 30.799 124.595 30.9524 125.008 31.1524C125.421 31.339 125.748 31.6057 125.988 31.9524C126.241 32.2857 126.368 32.739 126.368 33.3124C126.368 33.8857 126.208 34.3857 125.888 34.8124C125.581 35.239 125.121 35.5724 124.508 35.8124C123.895 36.0524 123.141 36.1724 122.248 36.1724ZM132.199 36.1724C131.279 36.1724 130.572 35.919 130.079 35.4124C129.599 34.9057 129.359 34.2124 129.359 33.3324V23.3724H130.359V33.2324C130.359 33.899 130.525 34.4124 130.859 34.7724C131.192 35.1324 131.672 35.3124 132.299 35.3124C132.952 35.3124 133.492 35.119 133.919 34.7324L134.339 35.4324C134.072 35.6857 133.745 35.8724 133.359 35.9924C132.985 36.1124 132.599 36.1724 132.199 36.1724ZM127.439 26.5124V25.6524H133.679V26.5124H127.439ZM140.996 36.1724C139.943 36.1724 139.01 35.9457 138.196 35.4924C137.396 35.039 136.763 34.4124 136.296 33.6124C135.843 32.8124 135.616 31.899 135.616 30.8724C135.616 29.8324 135.83 28.919 136.256 28.1324C136.696 27.3324 137.296 26.7057 138.056 26.2524C138.816 25.799 139.67 25.5724 140.616 25.5724C141.563 25.5724 142.41 25.7924 143.156 26.2324C143.916 26.6724 144.51 27.2924 144.936 28.0924C145.376 28.879 145.596 29.7924 145.596 30.8324C145.596 30.8724 145.59 30.919 145.576 30.9724C145.576 31.0124 145.576 31.059 145.576 31.1124H136.356V30.3324H145.036L144.636 30.7124C144.65 29.899 144.476 29.1724 144.116 28.5324C143.77 27.879 143.296 27.3724 142.696 27.0124C142.096 26.639 141.403 26.4524 140.616 26.4524C139.843 26.4524 139.15 26.639 138.536 27.0124C137.936 27.3724 137.463 27.879 137.116 28.5324C136.77 29.1724 136.596 29.9057 136.596 30.7324V30.9124C136.596 31.7657 136.783 32.5257 137.156 33.1924C137.543 33.8457 138.07 34.359 138.736 34.7324C139.403 35.0924 140.163 35.2724 141.016 35.2724C141.683 35.2724 142.303 35.1524 142.876 34.9124C143.463 34.6724 143.956 34.3057 144.356 33.8124L144.936 34.4724C144.483 35.0324 143.91 35.459 143.216 35.7524C142.536 36.0324 141.796 36.1724 140.996 36.1724ZM161.69 25.5724C162.53 25.5724 163.257 25.739 163.87 26.0724C164.497 26.3924 164.983 26.8857 165.33 27.5524C165.677 28.2057 165.85 29.019 165.85 29.9924V36.0924H164.85V30.0724C164.85 28.899 164.563 28.0057 163.99 27.3924C163.417 26.779 162.617 26.4724 161.59 26.4724C160.803 26.4724 160.123 26.639 159.55 26.9724C158.977 27.3057 158.537 27.7724 158.23 28.3724C157.923 28.9724 157.77 29.6924 157.77 30.5324V36.0924H156.77V30.0724C156.77 28.899 156.483 28.0057 155.91 27.3924C155.337 26.779 154.537 26.4724 153.51 26.4724C152.723 26.4724 152.043 26.639 151.47 26.9724C150.897 27.3057 150.457 27.7724 150.15 28.3724C149.843 28.9724 149.69 29.6924 149.69 30.5324V36.0924H148.69V25.6524H149.65V28.5324L149.51 28.2124C149.817 27.399 150.33 26.759 151.05 26.2924C151.77 25.8124 152.637 25.5724 153.65 25.5724C154.69 25.5724 155.563 25.839 156.27 26.3724C156.99 26.8924 157.443 27.6724 157.63 28.7124L157.29 28.5724C157.57 27.679 158.097 26.959 158.87 26.4124C159.643 25.8524 160.583 25.5724 161.69 25.5724ZM176.559 36.0924V33.7124L176.519 33.3524V29.4324C176.519 28.459 176.252 27.719 175.719 27.2124C175.199 26.7057 174.432 26.4524 173.419 26.4524C172.699 26.4524 172.026 26.579 171.399 26.8324C170.786 27.0724 170.259 27.3857 169.819 27.7724L169.319 27.0524C169.839 26.5857 170.466 26.2257 171.199 25.9724C171.932 25.7057 172.699 25.5724 173.499 25.5724C174.792 25.5724 175.786 25.899 176.479 26.5524C177.172 27.2057 177.519 28.179 177.519 29.4724V36.0924H176.559ZM172.799 36.1724C172.026 36.1724 171.352 36.0524 170.779 35.8124C170.219 35.559 169.786 35.2057 169.479 34.7524C169.186 34.299 169.039 33.779 169.039 33.1924C169.039 32.659 169.159 32.179 169.399 31.7524C169.652 31.3124 170.066 30.959 170.639 30.6924C171.212 30.4124 171.979 30.2724 172.939 30.2724H176.779V31.0524H172.959C171.879 31.0524 171.119 31.2524 170.679 31.6524C170.252 32.0524 170.039 32.5524 170.039 33.1524C170.039 33.819 170.292 34.3524 170.799 34.7524C171.306 35.1524 172.019 35.3524 172.939 35.3524C173.819 35.3524 174.559 35.1524 175.159 34.7524C175.772 34.3524 176.226 33.7724 176.519 33.0124L176.799 33.6924C176.519 34.4524 176.039 35.059 175.359 35.5124C174.692 35.9524 173.839 36.1724 172.799 36.1724ZM184.279 36.1724C183.412 36.1724 182.599 36.0457 181.839 35.7924C181.092 35.539 180.512 35.219 180.099 34.8324L180.559 34.0324C180.959 34.379 181.492 34.679 182.159 34.9324C182.826 35.1724 183.546 35.2924 184.319 35.2924C185.412 35.2924 186.199 35.1124 186.679 34.7524C187.159 34.3924 187.399 33.919 187.399 33.3324C187.399 32.9057 187.272 32.5724 187.019 32.3324C186.779 32.079 186.452 31.8857 186.039 31.7524C185.626 31.619 185.172 31.5124 184.679 31.4324C184.186 31.339 183.692 31.239 183.199 31.1324C182.706 31.0257 182.252 30.8724 181.839 30.6724C181.426 30.4724 181.092 30.199 180.839 29.8524C180.599 29.4924 180.479 29.019 180.479 28.4324C180.479 27.899 180.626 27.419 180.919 26.9924C181.212 26.5657 181.652 26.2257 182.239 25.9724C182.826 25.7057 183.559 25.5724 184.439 25.5724C185.092 25.5724 185.746 25.6657 186.399 25.8524C187.066 26.039 187.606 26.2857 188.019 26.5924L187.559 27.3924C187.119 27.059 186.626 26.819 186.079 26.6724C185.532 26.5257 184.979 26.4524 184.419 26.4524C183.406 26.4524 182.659 26.639 182.179 27.0124C181.712 27.3857 181.479 27.8524 181.479 28.4124C181.479 28.8524 181.599 29.2057 181.839 29.4724C182.092 29.7257 182.426 29.9257 182.839 30.0724C183.252 30.2057 183.706 30.319 184.199 30.4124C184.692 30.4924 185.186 30.5857 185.679 30.6924C186.172 30.799 186.626 30.9524 187.039 31.1524C187.452 31.339 187.779 31.6057 188.019 31.9524C188.272 32.2857 188.399 32.739 188.399 33.3124C188.399 33.8857 188.239 34.3857 187.919 34.8124C187.612 35.239 187.152 35.5724 186.539 35.8124C185.926 36.0524 185.172 36.1724 184.279 36.1724Z" fill="white"/>
</svg>
